<svg width="60" height="17" viewBox="0 0 60 17" fill="none" xmlns="http://www.w3.org/2000/svg">
<path d="M4.242 9.17C4.62933 9.17 4.97 9.11867 5.264 9.016C5.56267 8.91333 5.81233 8.771 6.013 8.589C6.21833 8.40233 6.37233 8.18067 6.475 7.924C6.57767 7.66733 6.629 7.385 6.629 7.077C6.629 6.43767 6.43067 5.93833 6.034 5.579C5.642 5.21967 5.04467 5.04 4.242 5.04H2.632V9.17H4.242ZM4.242 3.969C4.87667 3.969 5.42733 4.04367 5.894 4.193C6.36533 4.33767 6.755 4.54533 7.063 4.816C7.371 5.08667 7.59967 5.41333 7.749 5.796C7.903 6.17867 7.98 6.60567 7.98 7.077C7.98 7.54367 7.89833 7.97067 7.735 8.358C7.57167 8.74533 7.33133 9.079 7.014 9.359C6.70133 9.639 6.31167 9.85833 5.845 10.017C5.383 10.171 4.84867 10.248 4.242 10.248H2.632V14H1.281V3.969H4.242ZM12.4682 8.827C12.8602 8.827 13.2055 8.78033 13.5042 8.687C13.8075 8.589 14.0595 8.45367 14.2602 8.281C14.4655 8.10367 14.6195 7.89367 14.7222 7.651C14.8249 7.40833 14.8762 7.14 14.8762 6.846C14.8762 6.24867 14.6802 5.79833 14.2882 5.495C13.8962 5.19167 13.3082 5.04 12.5242 5.04H11.0402V8.827H12.4682ZM17.1022 14H15.8982C15.6509 14 15.4689 13.9043 15.3522 13.713L12.7482 10.129C12.6689 10.017 12.5825 9.93767 12.4892 9.891C12.4005 9.83967 12.2605 9.814 12.0692 9.814H11.0402V14H9.6892V3.969H12.5242C13.1589 3.969 13.7072 4.03433 14.1692 4.165C14.6312 4.291 15.0115 4.47533 15.3102 4.718C15.6135 4.96067 15.8375 5.25467 15.9822 5.6C16.1269 5.94067 16.1992 6.32333 16.1992 6.748C16.1992 7.10267 16.1432 7.434 16.0312 7.742C15.9192 8.05 15.7559 8.32767 15.5412 8.575C15.3312 8.81767 15.0722 9.02533 14.7642 9.198C14.4609 9.37067 14.1155 9.50133 13.7282 9.59C13.9009 9.688 14.0502 9.83033 14.1762 10.017L17.1022 14ZM19.8245 14H18.4665V3.969H19.8245V14ZM29.4324 11.928C29.507 11.928 29.5724 11.9583 29.6284 12.019L30.1674 12.6C29.7567 13.076 29.2574 13.447 28.6694 13.713C28.086 13.979 27.379 14.112 26.5484 14.112C25.8297 14.112 25.1764 13.9883 24.5884 13.741C24.0004 13.489 23.4987 13.139 23.0834 12.691C22.668 12.2383 22.346 11.697 22.1174 11.067C21.8887 10.437 21.7744 9.744 21.7744 8.988C21.7744 8.232 21.8934 7.539 22.1314 6.909C22.3694 6.279 22.703 5.73767 23.1324 5.285C23.5664 4.83233 24.0844 4.48233 24.6864 4.235C25.2884 3.983 25.9534 3.857 26.6814 3.857C27.3954 3.857 28.0254 3.97133 28.5714 4.2C29.1174 4.42867 29.598 4.739 30.0134 5.131L29.5654 5.754C29.5374 5.80067 29.5 5.84033 29.4534 5.873C29.4114 5.901 29.353 5.915 29.2784 5.915C29.1944 5.915 29.0917 5.87067 28.9704 5.782C28.849 5.68867 28.6904 5.586 28.4944 5.474C28.2984 5.362 28.0534 5.26167 27.7594 5.173C27.4654 5.07967 27.1037 5.033 26.6744 5.033C26.1564 5.033 25.6827 5.124 25.2534 5.306C24.824 5.48333 24.453 5.74233 24.1404 6.083C23.8324 6.42367 23.592 6.839 23.4194 7.329C23.2467 7.819 23.1604 8.372 23.1604 8.988C23.1604 9.61333 23.249 10.171 23.4264 10.661C23.6084 11.151 23.8534 11.5663 24.1614 11.907C24.474 12.243 24.8404 12.4997 25.2604 12.677C25.685 12.8543 26.1424 12.943 26.6324 12.943C26.931 12.943 27.1994 12.9267 27.4374 12.894C27.68 12.8567 27.9017 12.8007 28.1024 12.726C28.3077 12.6513 28.4967 12.558 28.6694 12.446C28.8467 12.3293 29.0217 12.1917 29.1944 12.033C29.2737 11.963 29.353 11.928 29.4324 11.928ZM37.9299 12.894L37.9229 14H31.7419V3.969H37.9229V5.075H33.0999V8.407H37.0059V9.471H33.0999V12.894H37.9299Z" fill="#6F6E6E"/>
<path d="M54.0021 12.0021C53.8352 12.0025 53.6734 11.9443 53.5449 11.8378L49.2581 8.2655C49.1122 8.14422 49.0204 7.96996 49.003 7.78103C48.9856 7.59211 49.0439 7.40401 49.1652 7.2581C49.2865 7.1122 49.4608 7.02044 49.6497 7.00302C49.8386 6.9856 50.0267 7.04395 50.1726 7.16522L54.0021 10.366L57.8317 7.27954C57.9047 7.22019 57.9888 7.17587 58.0791 7.14913C58.1694 7.12238 58.264 7.11374 58.3576 7.1237C58.4513 7.13366 58.542 7.16202 58.6246 7.20716C58.7072 7.25229 58.7801 7.31331 58.8391 7.38671C58.9045 7.46017 58.954 7.54635 58.9846 7.63986C59.0152 7.73336 59.0261 7.83217 59.0167 7.9301C59.0073 8.02802 58.9778 8.12296 58.9301 8.20895C58.8823 8.29494 58.8172 8.37013 58.739 8.42982L54.4523 11.8807C54.32 11.9704 54.1615 12.0131 54.0021 12.0021Z" fill="#6F6E6E"/>
</svg>
