<svg width="50" height="17" viewBox="0 0 50 17" fill="none" xmlns="http://www.w3.org/2000/svg">
<path d="M6.412 5.537C6.37 5.607 6.32333 5.66067 6.272 5.698C6.22533 5.73067 6.167 5.747 6.097 5.747C6.01767 5.747 5.92433 5.70733 5.817 5.628C5.70967 5.54867 5.57433 5.46233 5.411 5.369C5.25233 5.271 5.05867 5.18233 4.83 5.103C4.606 5.02367 4.333 4.984 4.011 4.984C3.70767 4.984 3.43933 5.026 3.206 5.11C2.97733 5.18933 2.78367 5.299 2.625 5.439C2.471 5.579 2.35433 5.74467 2.275 5.936C2.19567 6.12267 2.156 6.32567 2.156 6.545C2.156 6.825 2.22367 7.05833 2.359 7.245C2.499 7.427 2.681 7.58333 2.905 7.714C3.13367 7.84467 3.39033 7.959 3.675 8.057C3.96433 8.15033 4.25833 8.24833 4.557 8.351C4.86033 8.45367 5.15433 8.57033 5.439 8.701C5.72833 8.827 5.985 8.988 6.209 9.184C6.43767 9.38 6.61967 9.62033 6.755 9.905C6.895 10.1897 6.965 10.5397 6.965 10.955C6.965 11.3937 6.89033 11.8067 6.741 12.194C6.59167 12.5767 6.37233 12.9103 6.083 13.195C5.79833 13.4797 5.446 13.7037 5.026 13.867C4.61067 14.0303 4.137 14.112 3.605 14.112C2.95167 14.112 2.359 13.9953 1.827 13.762C1.295 13.524 0.84 13.2043 0.462 12.803L0.854 12.159C0.891333 12.1077 0.935667 12.0657 0.987 12.033C1.043 11.9957 1.10367 11.977 1.169 11.977C1.22967 11.977 1.29733 12.0027 1.372 12.054C1.45133 12.1007 1.54 12.1613 1.638 12.236C1.736 12.3107 1.848 12.3923 1.974 12.481C2.1 12.5697 2.24233 12.6513 2.401 12.726C2.56433 12.8007 2.74867 12.8637 2.954 12.915C3.15933 12.9617 3.39033 12.985 3.647 12.985C3.969 12.985 4.256 12.9407 4.508 12.852C4.76 12.7633 4.97233 12.6397 5.145 12.481C5.32233 12.3177 5.45767 12.124 5.551 11.9C5.64433 11.676 5.691 11.4263 5.691 11.151C5.691 10.8477 5.621 10.6003 5.481 10.409C5.34567 10.213 5.166 10.0497 4.942 9.919C4.718 9.78833 4.46133 9.67867 4.172 9.59C3.88267 9.49667 3.58867 9.40333 3.29 9.31C2.99133 9.212 2.69733 9.1 2.408 8.974C2.11867 8.848 1.862 8.68467 1.638 8.484C1.414 8.28333 1.232 8.03367 1.092 7.735C0.956667 7.43167 0.889 7.05833 0.889 6.615C0.889 6.26033 0.956667 5.91733 1.092 5.586C1.232 5.25467 1.43267 4.96067 1.694 4.704C1.96 4.44733 2.28433 4.242 2.667 4.088C3.05433 3.934 3.49767 3.857 3.997 3.857C4.557 3.857 5.06567 3.94567 5.523 4.123C5.985 4.30033 6.391 4.557 6.741 4.893L6.412 5.537ZM10.2406 14H8.88256V3.969H10.2406V14ZM19.4984 4.473C19.4984 4.627 19.4517 4.77633 19.3584 4.921L13.6814 12.894H19.4144V14H11.8964V13.468C11.8964 13.3933 11.9081 13.3233 11.9314 13.258C11.9594 13.1927 11.9921 13.1297 12.0294 13.069L17.7204 5.075H12.1624V3.969H19.4984V4.473ZM27.4163 12.894L27.4093 14H21.2283V3.969H27.4093V5.075H22.5863V8.407H26.4923V9.471H22.5863V12.894H27.4163Z" fill="#6F6E6E"/>
<path d="M44.0021 12.0021C43.8352 12.0025 43.6734 11.9443 43.5449 11.8378L39.2581 8.2655C39.1122 8.14422 39.0204 7.96996 39.003 7.78103C38.9856 7.59211 39.0439 7.40401 39.1652 7.2581C39.2865 7.1122 39.4608 7.02044 39.6497 7.00302C39.8386 6.9856 40.0267 7.04395 40.1726 7.16522L44.0021 10.366L47.8317 7.27954C47.9047 7.22019 47.9888 7.17587 48.0791 7.14913C48.1694 7.12238 48.264 7.11374 48.3576 7.1237C48.4513 7.13366 48.542 7.16202 48.6246 7.20716C48.7072 7.25229 48.7801 7.31331 48.8391 7.38671C48.9045 7.46017 48.954 7.54635 48.9846 7.63986C49.0152 7.73336 49.0261 7.83217 49.0167 7.9301C49.0073 8.02802 48.9778 8.12296 48.9301 8.20895C48.8823 8.29494 48.8172 8.37013 48.739 8.42982L44.4523 11.8807C44.32 11.9704 44.1615 12.0131 44.0021 12.0021Z" fill="#6F6E6E"/>
</svg>
