<svg width="374" height="18" viewBox="0 0 374 18" fill="none" xmlns="http://www.w3.org/2000/svg">
<path d="M8.323 12.4729C8.39767 12.4729 8.463 12.5033 8.519 12.5639L9.058 13.1449C8.64733 13.6209 8.148 13.9919 7.56 14.2579C6.97667 14.5239 6.26967 14.6569 5.439 14.6569C4.72033 14.6569 4.067 14.5333 3.479 14.2859C2.891 14.0339 2.38933 13.6839 1.974 13.2359C1.55867 12.7833 1.23667 12.2419 1.008 11.6119C0.779333 10.9819 0.665 10.2889 0.665 9.53292C0.665 8.77692 0.784 8.08392 1.022 7.45392C1.26 6.82392 1.59367 6.28259 2.023 5.82992C2.457 5.37726 2.975 5.02725 3.577 4.77992C4.179 4.52792 4.844 4.40192 5.572 4.40192C6.286 4.40192 6.916 4.51625 7.462 4.74492C8.008 4.97359 8.48867 5.28392 8.904 5.67592L8.456 6.29892C8.428 6.34559 8.39067 6.38525 8.344 6.41792C8.302 6.44592 8.24367 6.45992 8.169 6.45992C8.085 6.45992 7.98233 6.41559 7.861 6.32692C7.73967 6.23359 7.581 6.13092 7.385 6.01892C7.189 5.90692 6.944 5.80659 6.65 5.71792C6.356 5.62459 5.99433 5.57792 5.565 5.57792C5.047 5.57792 4.57333 5.66892 4.144 5.85092C3.71467 6.02825 3.34367 6.28725 3.031 6.62792C2.723 6.96859 2.48267 7.38392 2.31 7.87392C2.13733 8.36392 2.051 8.91692 2.051 9.53292C2.051 10.1583 2.13967 10.7159 2.317 11.2059C2.499 11.6959 2.744 12.1113 3.052 12.4519C3.36467 12.7879 3.731 13.0446 4.151 13.2219C4.57567 13.3993 5.033 13.4879 5.523 13.4879C5.82167 13.4879 6.09 13.4716 6.328 13.4389C6.57067 13.4016 6.79233 13.3456 6.993 13.2709C7.19833 13.1963 7.38733 13.1029 7.56 12.9909C7.73733 12.8743 7.91233 12.7366 8.085 12.5779C8.16433 12.5079 8.24367 12.4729 8.323 12.4729ZM18.7596 4.51392V14.5449H17.4016V9.98092H11.9906V14.5449H10.6326V4.51392H11.9906V8.98692H17.4016V4.51392H18.7596ZM30.592 9.53292C30.592 10.2843 30.473 10.9749 30.235 11.6049C29.997 12.2303 29.661 12.7693 29.227 13.2219C28.793 13.6746 28.2703 14.0269 27.659 14.2789C27.0523 14.5263 26.3803 14.6499 25.643 14.6499C24.9056 14.6499 24.2336 14.5263 23.627 14.2789C23.0203 14.0269 22.5 13.6746 22.066 13.2219C21.632 12.7693 21.296 12.2303 21.058 11.6049C20.82 10.9749 20.701 10.2843 20.701 9.53292C20.701 8.78159 20.82 8.09325 21.058 7.46792C21.296 6.83792 21.632 6.29659 22.066 5.84392C22.5 5.38659 23.0203 5.03192 23.627 4.77992C24.2336 4.52792 24.9056 4.40192 25.643 4.40192C26.3803 4.40192 27.0523 4.52792 27.659 4.77992C28.2703 5.03192 28.793 5.38659 29.227 5.84392C29.661 6.29659 29.997 6.83792 30.235 7.46792C30.473 8.09325 30.592 8.78159 30.592 9.53292ZM29.199 9.53292C29.199 8.91692 29.115 8.36392 28.947 7.87392C28.779 7.38392 28.541 6.97092 28.233 6.63492C27.925 6.29425 27.5516 6.03292 27.113 5.85092C26.6743 5.66892 26.1843 5.57792 25.643 5.57792C25.1063 5.57792 24.6186 5.66892 24.18 5.85092C23.7413 6.03292 23.3656 6.29425 23.053 6.63492C22.745 6.97092 22.507 7.38392 22.339 7.87392C22.171 8.36392 22.087 8.91692 22.087 9.53292C22.087 10.1489 22.171 10.7019 22.339 11.1919C22.507 11.6773 22.745 12.0903 23.053 12.4309C23.3656 12.7669 23.7413 13.0259 24.18 13.2079C24.6186 13.3853 25.1063 13.4739 25.643 13.4739C26.1843 13.4739 26.6743 13.3853 27.113 13.2079C27.5516 13.0259 27.925 12.7669 28.233 12.4309C28.541 12.0903 28.779 11.6773 28.947 11.1919C29.115 10.7019 29.199 10.1489 29.199 9.53292ZM41.8029 9.53292C41.8029 10.2843 41.6839 10.9749 41.4459 11.6049C41.2079 12.2303 40.8719 12.7693 40.4379 13.2219C40.0039 13.6746 39.4812 14.0269 38.8699 14.2789C38.2632 14.5263 37.5912 14.6499 36.8539 14.6499C36.1166 14.6499 35.4446 14.5263 34.8379 14.2789C34.2312 14.0269 33.7109 13.6746 33.2769 13.2219C32.8429 12.7693 32.5069 12.2303 32.2689 11.6049C32.0309 10.9749 31.9119 10.2843 31.9119 9.53292C31.9119 8.78159 32.0309 8.09325 32.2689 7.46792C32.5069 6.83792 32.8429 6.29659 33.2769 5.84392C33.7109 5.38659 34.2312 5.03192 34.8379 4.77992C35.4446 4.52792 36.1166 4.40192 36.8539 4.40192C37.5912 4.40192 38.2632 4.52792 38.8699 4.77992C39.4812 5.03192 40.0039 5.38659 40.4379 5.84392C40.8719 6.29659 41.2079 6.83792 41.4459 7.46792C41.6839 8.09325 41.8029 8.78159 41.8029 9.53292ZM40.4099 9.53292C40.4099 8.91692 40.3259 8.36392 40.1579 7.87392C39.9899 7.38392 39.7519 6.97092 39.4439 6.63492C39.1359 6.29425 38.7626 6.03292 38.3239 5.85092C37.8852 5.66892 37.3952 5.57792 36.8539 5.57792C36.3172 5.57792 35.8296 5.66892 35.3909 5.85092C34.9522 6.03292 34.5766 6.29425 34.2639 6.63492C33.9559 6.97092 33.7179 7.38392 33.5499 7.87392C33.3819 8.36392 33.2979 8.91692 33.2979 9.53292C33.2979 10.1489 33.3819 10.7019 33.5499 11.1919C33.7179 11.6773 33.9559 12.0903 34.2639 12.4309C34.5766 12.7669 34.9522 13.0259 35.3909 13.2079C35.8296 13.3853 36.3172 13.4739 36.8539 13.4739C37.3952 13.4739 37.8852 13.3853 38.3239 13.2079C38.7626 13.0259 39.1359 12.7669 39.4439 12.4309C39.7519 12.0903 39.9899 11.6773 40.1579 11.1919C40.3259 10.7019 40.4099 10.1489 40.4099 9.53292ZM48.8768 6.08192C48.8348 6.15192 48.7882 6.20559 48.7368 6.24292C48.6902 6.27559 48.6318 6.29192 48.5618 6.29192C48.4825 6.29192 48.3892 6.25225 48.2818 6.17292C48.1745 6.09359 48.0392 6.00725 47.8758 5.91392C47.7172 5.81592 47.5235 5.72725 47.2948 5.64792C47.0708 5.56859 46.7978 5.52892 46.4758 5.52892C46.1725 5.52892 45.9042 5.57092 45.6708 5.65492C45.4422 5.73425 45.2485 5.84392 45.0898 5.98392C44.9358 6.12392 44.8192 6.28959 44.7398 6.48092C44.6605 6.66759 44.6208 6.87059 44.6208 7.08992C44.6208 7.36992 44.6885 7.60326 44.8238 7.78992C44.9638 7.97192 45.1458 8.12825 45.3698 8.25892C45.5985 8.38959 45.8552 8.50392 46.1398 8.60192C46.4292 8.69525 46.7232 8.79325 47.0218 8.89592C47.3252 8.99859 47.6192 9.11526 47.9038 9.24592C48.1932 9.37192 48.4498 9.53292 48.6738 9.72892C48.9025 9.92492 49.0845 10.1653 49.2198 10.4499C49.3598 10.7346 49.4298 11.0846 49.4298 11.4999C49.4298 11.9386 49.3552 12.3516 49.2058 12.7389C49.0565 13.1216 48.8372 13.4553 48.5478 13.7399C48.2632 14.0246 47.9108 14.2486 47.4908 14.4119C47.0755 14.5753 46.6018 14.6569 46.0698 14.6569C45.4165 14.6569 44.8238 14.5403 44.2918 14.3069C43.7598 14.0689 43.3048 13.7493 42.9268 13.3479L43.3188 12.7039C43.3562 12.6526 43.4005 12.6106 43.4518 12.5779C43.5078 12.5406 43.5685 12.5219 43.6338 12.5219C43.6945 12.5219 43.7622 12.5476 43.8368 12.5989C43.9162 12.6456 44.0048 12.7063 44.1028 12.7809C44.2008 12.8556 44.3128 12.9373 44.4388 13.0259C44.5648 13.1146 44.7072 13.1963 44.8658 13.2709C45.0292 13.3456 45.2135 13.4086 45.4188 13.4599C45.6242 13.5066 45.8552 13.5299 46.1118 13.5299C46.4338 13.5299 46.7208 13.4856 46.9728 13.3969C47.2248 13.3083 47.4372 13.1846 47.6098 13.0259C47.7872 12.8626 47.9225 12.6689 48.0158 12.4449C48.1092 12.2209 48.1558 11.9713 48.1558 11.6959C48.1558 11.3926 48.0858 11.1453 47.9458 10.9539C47.8105 10.7579 47.6308 10.5946 47.4068 10.4639C47.1828 10.3333 46.9262 10.2236 46.6368 10.1349C46.3475 10.0416 46.0535 9.94826 45.7548 9.85492C45.4562 9.75692 45.1622 9.64492 44.8728 9.51892C44.5835 9.39292 44.3268 9.22959 44.1028 9.02892C43.8788 8.82825 43.6968 8.57859 43.5568 8.27992C43.4215 7.97659 43.3538 7.60325 43.3538 7.15992C43.3538 6.80525 43.4215 6.46225 43.5568 6.13092C43.6968 5.79959 43.8975 5.50559 44.1588 5.24892C44.4248 4.99225 44.7492 4.78692 45.1318 4.63292C45.5192 4.47892 45.9625 4.40192 46.4618 4.40192C47.0218 4.40192 47.5305 4.49059 47.9878 4.66792C48.4498 4.84526 48.8558 5.10192 49.2058 5.43792L48.8768 6.08192ZM57.5354 13.4389L57.5284 14.5449H51.3474V4.51392H57.5284V5.61992H52.7054V8.95192H56.6114V10.0159H52.7054V13.4389H57.5354ZM70.0515 12.4729C70.1262 12.4729 70.1915 12.5033 70.2475 12.5639L70.7865 13.1449C70.3758 13.6209 69.8765 13.9919 69.2885 14.2579C68.7052 14.5239 67.9982 14.6569 67.1675 14.6569C66.4488 14.6569 65.7955 14.5333 65.2075 14.2859C64.6195 14.0339 64.1178 13.6839 63.7025 13.2359C63.2872 12.7833 62.9652 12.2419 62.7365 11.6119C62.5078 10.9819 62.3935 10.2889 62.3935 9.53292C62.3935 8.77692 62.5125 8.08392 62.7505 7.45392C62.9885 6.82392 63.3222 6.28259 63.7515 5.82992C64.1855 5.37726 64.7035 5.02725 65.3055 4.77992C65.9075 4.52792 66.5725 4.40192 67.3005 4.40192C68.0145 4.40192 68.6445 4.51625 69.1905 4.74492C69.7365 4.97359 70.2172 5.28392 70.6325 5.67592L70.1845 6.29892C70.1565 6.34559 70.1192 6.38525 70.0725 6.41792C70.0305 6.44592 69.9722 6.45992 69.8975 6.45992C69.8135 6.45992 69.7108 6.41559 69.5895 6.32692C69.4682 6.23359 69.3095 6.13092 69.1135 6.01892C68.9175 5.90692 68.6725 5.80659 68.3785 5.71792C68.0845 5.62459 67.7228 5.57792 67.2935 5.57792C66.7755 5.57792 66.3018 5.66892 65.8725 5.85092C65.4432 6.02825 65.0722 6.28725 64.7595 6.62792C64.4515 6.96859 64.2112 7.38392 64.0385 7.87392C63.8658 8.36392 63.7795 8.91692 63.7795 9.53292C63.7795 10.1583 63.8682 10.7159 64.0455 11.2059C64.2275 11.6959 64.4725 12.1113 64.7805 12.4519C65.0932 12.7879 65.4595 13.0446 65.8795 13.2219C66.3042 13.3993 66.7615 13.4879 67.2515 13.4879C67.5502 13.4879 67.8185 13.4716 68.0565 13.4389C68.2992 13.4016 68.5208 13.3456 68.7215 13.2709C68.9268 13.1963 69.1158 13.1029 69.2885 12.9909C69.4658 12.8743 69.6408 12.7366 69.8135 12.5779C69.8928 12.5079 69.9722 12.4729 70.0515 12.4729ZM81.4377 9.53292C81.4377 10.2843 81.3187 10.9749 81.0807 11.6049C80.8427 12.2303 80.5067 12.7693 80.0727 13.2219C79.6387 13.6746 79.116 14.0269 78.5047 14.2789C77.898 14.5263 77.226 14.6499 76.4887 14.6499C75.7513 14.6499 75.0793 14.5263 74.4727 14.2789C73.866 14.0269 73.3457 13.6746 72.9117 13.2219C72.4777 12.7693 72.1417 12.2303 71.9037 11.6049C71.6657 10.9749 71.5467 10.2843 71.5467 9.53292C71.5467 8.78159 71.6657 8.09325 71.9037 7.46792C72.1417 6.83792 72.4777 6.29659 72.9117 5.84392C73.3457 5.38659 73.866 5.03192 74.4727 4.77992C75.0793 4.52792 75.7513 4.40192 76.4887 4.40192C77.226 4.40192 77.898 4.52792 78.5047 4.77992C79.116 5.03192 79.6387 5.38659 80.0727 5.84392C80.5067 6.29659 80.8427 6.83792 81.0807 7.46792C81.3187 8.09325 81.4377 8.78159 81.4377 9.53292ZM80.0447 9.53292C80.0447 8.91692 79.9607 8.36392 79.7927 7.87392C79.6247 7.38392 79.3867 6.97092 79.0787 6.63492C78.7707 6.29425 78.3973 6.03292 77.9587 5.85092C77.52 5.66892 77.03 5.57792 76.4887 5.57792C75.952 5.57792 75.4643 5.66892 75.0257 5.85092C74.587 6.03292 74.2113 6.29425 73.8987 6.63492C73.5907 6.97092 73.3527 7.38392 73.1847 7.87392C73.0167 8.36392 72.9327 8.91692 72.9327 9.53292C72.9327 10.1489 73.0167 10.7019 73.1847 11.1919C73.3527 11.6773 73.5907 12.0903 73.8987 12.4309C74.2113 12.7669 74.587 13.0259 75.0257 13.2079C75.4643 13.3853 75.952 13.4739 76.4887 13.4739C77.03 13.4739 77.52 13.3853 77.9587 13.2079C78.3973 13.0259 78.7707 12.7669 79.0787 12.4309C79.3867 12.0903 79.6247 11.6773 79.7927 11.1919C79.9607 10.7019 80.0447 10.1489 80.0447 9.53292ZM89.0716 13.4039V14.5449H83.3806V4.51392H84.7316V13.4039H89.0716ZM99.3752 9.53292C99.3752 10.2843 99.2562 10.9749 99.0182 11.6049C98.7802 12.2303 98.4442 12.7693 98.0102 13.2219C97.5762 13.6746 97.0535 14.0269 96.4422 14.2789C95.8355 14.5263 95.1635 14.6499 94.4262 14.6499C93.6888 14.6499 93.0168 14.5263 92.4102 14.2789C91.8035 14.0269 91.2832 13.6746 90.8492 13.2219C90.4152 12.7693 90.0792 12.2303 89.8412 11.6049C89.6032 10.9749 89.4842 10.2843 89.4842 9.53292C89.4842 8.78159 89.6032 8.09325 89.8412 7.46792C90.0792 6.83792 90.4152 6.29659 90.8492 5.84392C91.2832 5.38659 91.8035 5.03192 92.4102 4.77992C93.0168 4.52792 93.6888 4.40192 94.4262 4.40192C95.1635 4.40192 95.8355 4.52792 96.4422 4.77992C97.0535 5.03192 97.5762 5.38659 98.0102 5.84392C98.4442 6.29659 98.7802 6.83792 99.0182 7.46792C99.2562 8.09325 99.3752 8.78159 99.3752 9.53292ZM97.9822 9.53292C97.9822 8.91692 97.8982 8.36392 97.7302 7.87392C97.5622 7.38392 97.3242 6.97092 97.0162 6.63492C96.7082 6.29425 96.3348 6.03292 95.8962 5.85092C95.4575 5.66892 94.9675 5.57792 94.4262 5.57792C93.8895 5.57792 93.4018 5.66892 92.9632 5.85092C92.5245 6.03292 92.1488 6.29425 91.8362 6.63492C91.5282 6.97092 91.2902 7.38392 91.1222 7.87392C90.9542 8.36392 90.8702 8.91692 90.8702 9.53292C90.8702 10.1489 90.9542 10.7019 91.1222 11.1919C91.2902 11.6773 91.5282 12.0903 91.8362 12.4309C92.1488 12.7669 92.5245 13.0259 92.9632 13.2079C93.4018 13.3853 93.8895 13.4739 94.4262 13.4739C94.9675 13.4739 95.4575 13.3853 95.8962 13.2079C96.3348 13.0259 96.7082 12.7669 97.0162 12.4309C97.3242 12.0903 97.5622 11.6773 97.7302 11.1919C97.8982 10.7019 97.9822 10.1489 97.9822 9.53292ZM104.097 9.37192C104.489 9.37192 104.834 9.32525 105.133 9.23192C105.436 9.13392 105.688 8.99859 105.889 8.82592C106.094 8.64859 106.248 8.43859 106.351 8.19592C106.454 7.95325 106.505 7.68492 106.505 7.39092C106.505 6.79359 106.309 6.34325 105.917 6.03992C105.525 5.73659 104.937 5.58492 104.153 5.58492H102.669V9.37192H104.097ZM108.731 14.5449H107.527C107.28 14.5449 107.098 14.4493 106.981 14.2579L104.377 10.6739C104.298 10.5619 104.211 10.4826 104.118 10.4359C104.029 10.3846 103.889 10.3589 103.698 10.3589H102.669V14.5449H101.318V4.51392H104.153C104.788 4.51392 105.336 4.57925 105.798 4.70992C106.26 4.83592 106.64 5.02025 106.939 5.26292C107.242 5.50559 107.466 5.79959 107.611 6.14492C107.756 6.48559 107.828 6.86825 107.828 7.29292C107.828 7.64759 107.772 7.97892 107.66 8.28692C107.548 8.59492 107.385 8.87259 107.17 9.11992C106.96 9.36259 106.701 9.57025 106.393 9.74292C106.09 9.91559 105.744 10.0463 105.357 10.1349C105.53 10.2329 105.679 10.3753 105.805 10.5619L108.731 14.5449Z" fill="#6F6E6E"/>
<path d="M123.002 12.6485C122.835 12.6488 122.673 12.5902 122.545 12.4827L118.258 8.88021C118.112 8.75791 118.02 8.58217 118.003 8.39165C117.986 8.20112 118.044 8.01143 118.165 7.86429C118.286 7.71715 118.461 7.62462 118.65 7.60705C118.839 7.58949 119.027 7.64832 119.173 7.77062L123.002 10.9985L126.832 7.8859C126.905 7.82605 126.989 7.78136 127.079 7.75439C127.169 7.72742 127.264 7.71871 127.358 7.72875C127.451 7.73879 127.542 7.7674 127.625 7.81291C127.707 7.85843 127.78 7.91997 127.839 7.99398C127.904 8.06806 127.954 8.15498 127.985 8.24927C128.015 8.34357 128.026 8.44321 128.017 8.54197C128.007 8.64073 127.978 8.73646 127.93 8.82318C127.882 8.9099 127.817 8.98573 127.739 9.04592L123.452 12.526C123.32 12.6164 123.162 12.6595 123.002 12.6485Z" fill="#6F6E6E"/>
<path d="M159.323 12.4729C159.398 12.4729 159.463 12.5033 159.519 12.5639L160.058 13.1449C159.647 13.6209 159.148 13.9919 158.56 14.2579C157.977 14.5239 157.27 14.6569 156.439 14.6569C155.72 14.6569 155.067 14.5333 154.479 14.2859C153.891 14.0339 153.389 13.6839 152.974 13.2359C152.559 12.7833 152.237 12.2419 152.008 11.6119C151.779 10.9819 151.665 10.2889 151.665 9.53292C151.665 8.77692 151.784 8.08392 152.022 7.45392C152.26 6.82392 152.594 6.28259 153.023 5.82992C153.457 5.37726 153.975 5.02725 154.577 4.77992C155.179 4.52792 155.844 4.40192 156.572 4.40192C157.286 4.40192 157.916 4.51625 158.462 4.74492C159.008 4.97359 159.489 5.28392 159.904 5.67592L159.456 6.29892C159.428 6.34559 159.391 6.38525 159.344 6.41792C159.302 6.44592 159.244 6.45992 159.169 6.45992C159.085 6.45992 158.982 6.41559 158.861 6.32692C158.74 6.23359 158.581 6.13092 158.385 6.01892C158.189 5.90692 157.944 5.80659 157.65 5.71792C157.356 5.62459 156.994 5.57792 156.565 5.57792C156.047 5.57792 155.573 5.66892 155.144 5.85092C154.715 6.02825 154.344 6.28725 154.031 6.62792C153.723 6.96859 153.483 7.38392 153.31 7.87392C153.137 8.36392 153.051 8.91692 153.051 9.53292C153.051 10.1583 153.14 10.7159 153.317 11.2059C153.499 11.6959 153.744 12.1113 154.052 12.4519C154.365 12.7879 154.731 13.0446 155.151 13.2219C155.576 13.3993 156.033 13.4879 156.523 13.4879C156.822 13.4879 157.09 13.4716 157.328 13.4389C157.571 13.4016 157.792 13.3456 157.993 13.2709C158.198 13.1963 158.387 13.1029 158.56 12.9909C158.737 12.8743 158.912 12.7366 159.085 12.5779C159.164 12.5079 159.244 12.4729 159.323 12.4729ZM169.76 4.51392V14.5449H168.402V9.98092H162.991V14.5449H161.633V4.51392H162.991V8.98692H168.402V4.51392H169.76ZM181.592 9.53292C181.592 10.2843 181.473 10.9749 181.235 11.6049C180.997 12.2303 180.661 12.7693 180.227 13.2219C179.793 13.6746 179.27 14.0269 178.659 14.2789C178.052 14.5263 177.38 14.6499 176.643 14.6499C175.906 14.6499 175.234 14.5263 174.627 14.2789C174.02 14.0269 173.5 13.6746 173.066 13.2219C172.632 12.7693 172.296 12.2303 172.058 11.6049C171.82 10.9749 171.701 10.2843 171.701 9.53292C171.701 8.78159 171.82 8.09325 172.058 7.46792C172.296 6.83792 172.632 6.29659 173.066 5.84392C173.5 5.38659 174.02 5.03192 174.627 4.77992C175.234 4.52792 175.906 4.40192 176.643 4.40192C177.38 4.40192 178.052 4.52792 178.659 4.77992C179.27 5.03192 179.793 5.38659 180.227 5.84392C180.661 6.29659 180.997 6.83792 181.235 7.46792C181.473 8.09325 181.592 8.78159 181.592 9.53292ZM180.199 9.53292C180.199 8.91692 180.115 8.36392 179.947 7.87392C179.779 7.38392 179.541 6.97092 179.233 6.63492C178.925 6.29425 178.552 6.03292 178.113 5.85092C177.674 5.66892 177.184 5.57792 176.643 5.57792C176.106 5.57792 175.619 5.66892 175.18 5.85092C174.741 6.03292 174.366 6.29425 174.053 6.63492C173.745 6.97092 173.507 7.38392 173.339 7.87392C173.171 8.36392 173.087 8.91692 173.087 9.53292C173.087 10.1489 173.171 10.7019 173.339 11.1919C173.507 11.6773 173.745 12.0903 174.053 12.4309C174.366 12.7669 174.741 13.0259 175.18 13.2079C175.619 13.3853 176.106 13.4739 176.643 13.4739C177.184 13.4739 177.674 13.3853 178.113 13.2079C178.552 13.0259 178.925 12.7669 179.233 12.4309C179.541 12.0903 179.779 11.6773 179.947 11.1919C180.115 10.7019 180.199 10.1489 180.199 9.53292ZM192.803 9.53292C192.803 10.2843 192.684 10.9749 192.446 11.6049C192.208 12.2303 191.872 12.7693 191.438 13.2219C191.004 13.6746 190.481 14.0269 189.87 14.2789C189.263 14.5263 188.591 14.6499 187.854 14.6499C187.117 14.6499 186.445 14.5263 185.838 14.2789C185.231 14.0269 184.711 13.6746 184.277 13.2219C183.843 12.7693 183.507 12.2303 183.269 11.6049C183.031 10.9749 182.912 10.2843 182.912 9.53292C182.912 8.78159 183.031 8.09325 183.269 7.46792C183.507 6.83792 183.843 6.29659 184.277 5.84392C184.711 5.38659 185.231 5.03192 185.838 4.77992C186.445 4.52792 187.117 4.40192 187.854 4.40192C188.591 4.40192 189.263 4.52792 189.87 4.77992C190.481 5.03192 191.004 5.38659 191.438 5.84392C191.872 6.29659 192.208 6.83792 192.446 7.46792C192.684 8.09325 192.803 8.78159 192.803 9.53292ZM191.41 9.53292C191.41 8.91692 191.326 8.36392 191.158 7.87392C190.99 7.38392 190.752 6.97092 190.444 6.63492C190.136 6.29425 189.763 6.03292 189.324 5.85092C188.885 5.66892 188.395 5.57792 187.854 5.57792C187.317 5.57792 186.83 5.66892 186.391 5.85092C185.952 6.03292 185.577 6.29425 185.264 6.63492C184.956 6.97092 184.718 7.38392 184.55 7.87392C184.382 8.36392 184.298 8.91692 184.298 9.53292C184.298 10.1489 184.382 10.7019 184.55 11.1919C184.718 11.6773 184.956 12.0903 185.264 12.4309C185.577 12.7669 185.952 13.0259 186.391 13.2079C186.83 13.3853 187.317 13.4739 187.854 13.4739C188.395 13.4739 188.885 13.3853 189.324 13.2079C189.763 13.0259 190.136 12.7669 190.444 12.4309C190.752 12.0903 190.99 11.6773 191.158 11.1919C191.326 10.7019 191.41 10.1489 191.41 9.53292ZM199.877 6.08192C199.835 6.15192 199.788 6.20559 199.737 6.24292C199.69 6.27559 199.632 6.29192 199.562 6.29192C199.483 6.29192 199.389 6.25225 199.282 6.17292C199.175 6.09359 199.039 6.00725 198.876 5.91392C198.717 5.81592 198.524 5.72725 198.295 5.64792C198.071 5.56859 197.798 5.52892 197.476 5.52892C197.173 5.52892 196.904 5.57092 196.671 5.65492C196.442 5.73425 196.249 5.84392 196.09 5.98392C195.936 6.12392 195.819 6.28959 195.74 6.48092C195.661 6.66759 195.621 6.87059 195.621 7.08992C195.621 7.36992 195.689 7.60326 195.824 7.78992C195.964 7.97192 196.146 8.12825 196.37 8.25892C196.599 8.38959 196.855 8.50392 197.14 8.60192C197.429 8.69525 197.723 8.79325 198.022 8.89592C198.325 8.99859 198.619 9.11526 198.904 9.24592C199.193 9.37192 199.45 9.53292 199.674 9.72892C199.903 9.92492 200.085 10.1653 200.22 10.4499C200.36 10.7346 200.43 11.0846 200.43 11.4999C200.43 11.9386 200.355 12.3516 200.206 12.7389C200.057 13.1216 199.837 13.4553 199.548 13.7399C199.263 14.0246 198.911 14.2486 198.491 14.4119C198.076 14.5753 197.602 14.6569 197.07 14.6569C196.417 14.6569 195.824 14.5403 195.292 14.3069C194.76 14.0689 194.305 13.7493 193.927 13.3479L194.319 12.7039C194.356 12.6526 194.401 12.6106 194.452 12.5779C194.508 12.5406 194.569 12.5219 194.634 12.5219C194.695 12.5219 194.762 12.5476 194.837 12.5989C194.916 12.6456 195.005 12.7063 195.103 12.7809C195.201 12.8556 195.313 12.9373 195.439 13.0259C195.565 13.1146 195.707 13.1963 195.866 13.2709C196.029 13.3456 196.214 13.4086 196.419 13.4599C196.624 13.5066 196.855 13.5299 197.112 13.5299C197.434 13.5299 197.721 13.4856 197.973 13.3969C198.225 13.3083 198.437 13.1846 198.61 13.0259C198.787 12.8626 198.923 12.6689 199.016 12.4449C199.109 12.2209 199.156 11.9713 199.156 11.6959C199.156 11.3926 199.086 11.1453 198.946 10.9539C198.811 10.7579 198.631 10.5946 198.407 10.4639C198.183 10.3333 197.926 10.2236 197.637 10.1349C197.348 10.0416 197.054 9.94826 196.755 9.85492C196.456 9.75692 196.162 9.64492 195.873 9.51892C195.584 9.39292 195.327 9.22959 195.103 9.02892C194.879 8.82825 194.697 8.57859 194.557 8.27992C194.422 7.97659 194.354 7.60325 194.354 7.15992C194.354 6.80525 194.422 6.46225 194.557 6.13092C194.697 5.79959 194.898 5.50559 195.159 5.24892C195.425 4.99225 195.749 4.78692 196.132 4.63292C196.519 4.47892 196.963 4.40192 197.462 4.40192C198.022 4.40192 198.531 4.49059 198.988 4.66792C199.45 4.84526 199.856 5.10192 200.206 5.43792L199.877 6.08192ZM208.535 13.4389L208.528 14.5449H202.347V4.51392H208.528V5.61992H203.705V8.95192H207.611V10.0159H203.705V13.4389H208.535ZM219.141 6.08192C219.099 6.15192 219.052 6.20559 219.001 6.24292C218.954 6.27559 218.896 6.29192 218.826 6.29192C218.746 6.29192 218.653 6.25225 218.546 6.17292C218.438 6.09359 218.303 6.00725 218.14 5.91392C217.981 5.81592 217.787 5.72725 217.559 5.64792C217.335 5.56859 217.062 5.52892 216.74 5.52892C216.436 5.52892 216.168 5.57092 215.935 5.65492C215.706 5.73425 215.512 5.84392 215.354 5.98392C215.2 6.12392 215.083 6.28959 215.004 6.48092C214.924 6.66759 214.885 6.87059 214.885 7.08992C214.885 7.36992 214.952 7.60326 215.088 7.78992C215.228 7.97192 215.41 8.12825 215.634 8.25892C215.862 8.38959 216.119 8.50392 216.404 8.60192C216.693 8.69525 216.987 8.79325 217.286 8.89592C217.589 8.99859 217.883 9.11526 218.168 9.24592C218.457 9.37192 218.714 9.53292 218.938 9.72892C219.166 9.92492 219.348 10.1653 219.484 10.4499C219.624 10.7346 219.694 11.0846 219.694 11.4999C219.694 11.9386 219.619 12.3516 219.47 12.7389C219.32 13.1216 219.101 13.4553 218.812 13.7399C218.527 14.0246 218.175 14.2486 217.755 14.4119C217.339 14.5753 216.866 14.6569 216.334 14.6569C215.68 14.6569 215.088 14.5403 214.556 14.3069C214.024 14.0689 213.569 13.7493 213.191 13.3479L213.583 12.7039C213.62 12.6526 213.664 12.6106 213.716 12.5779C213.772 12.5406 213.832 12.5219 213.898 12.5219C213.958 12.5219 214.026 12.5476 214.101 12.5989C214.18 12.6456 214.269 12.7063 214.367 12.7809C214.465 12.8556 214.577 12.9373 214.703 13.0259C214.829 13.1146 214.971 13.1963 215.13 13.2709C215.293 13.3456 215.477 13.4086 215.683 13.4599C215.888 13.5066 216.119 13.5299 216.376 13.5299C216.698 13.5299 216.985 13.4856 217.237 13.3969C217.489 13.3083 217.701 13.1846 217.874 13.0259C218.051 12.8626 218.186 12.6689 218.28 12.4449C218.373 12.2209 218.42 11.9713 218.42 11.6959C218.42 11.3926 218.35 11.1453 218.21 10.9539C218.074 10.7579 217.895 10.5946 217.671 10.4639C217.447 10.3333 217.19 10.2236 216.901 10.1349C216.611 10.0416 216.317 9.94826 216.019 9.85492C215.72 9.75692 215.426 9.64492 215.137 9.51892C214.847 9.39292 214.591 9.22959 214.367 9.02892C214.143 8.82825 213.961 8.57859 213.821 8.27992C213.685 7.97659 213.618 7.60325 213.618 7.15992C213.618 6.80525 213.685 6.46225 213.821 6.13092C213.961 5.79959 214.161 5.50559 214.423 5.24892C214.689 4.99225 215.013 4.78692 215.396 4.63292C215.783 4.47892 216.226 4.40192 216.726 4.40192C217.286 4.40192 217.794 4.49059 218.252 4.66792C218.714 4.84526 219.12 5.10192 219.47 5.43792L219.141 6.08192ZM222.969 14.5449H221.611V4.51392H222.969V14.5449ZM232.227 5.01792C232.227 5.17192 232.18 5.32125 232.087 5.46592L226.41 13.4389H232.143V14.5449H224.625V14.0129C224.625 13.9383 224.637 13.8683 224.66 13.8029C224.688 13.7376 224.721 13.6746 224.758 13.6139L230.449 5.61992H224.891V4.51392H232.227V5.01792ZM240.145 13.4389L240.138 14.5449H233.957V4.51392H240.138V5.61992H235.315V8.95192H239.221V10.0159H235.315V13.4389H240.145Z" fill="#6F6E6E"/>
<path d="M255.002 12.6485C254.835 12.6488 254.673 12.5902 254.545 12.4827L250.258 8.88021C250.112 8.75791 250.02 8.58217 250.003 8.39165C249.986 8.20112 250.044 8.01143 250.165 7.86429C250.286 7.71715 250.461 7.62462 250.65 7.60705C250.839 7.58949 251.027 7.64832 251.173 7.77062L255.002 10.9985L258.832 7.8859C258.905 7.82605 258.989 7.78136 259.079 7.75439C259.169 7.72742 259.264 7.71871 259.358 7.72875C259.451 7.73879 259.542 7.7674 259.625 7.81291C259.707 7.85843 259.78 7.91997 259.839 7.99398C259.904 8.06806 259.954 8.15498 259.985 8.24927C260.015 8.34357 260.026 8.44321 260.017 8.54197C260.007 8.64073 259.978 8.73646 259.93 8.82318C259.882 8.9099 259.817 8.98573 259.739 9.04592L255.452 12.526C255.32 12.6164 255.162 12.6595 255.002 12.6485Z" fill="#6F6E6E"/>
<path d="M285.051 9.53292C285.051 10.1489 285.135 10.7019 285.303 11.1919C285.471 11.6773 285.709 12.0903 286.017 12.4309C286.33 12.7669 286.705 13.0259 287.144 13.2079C287.583 13.3853 288.07 13.4739 288.607 13.4739C289.148 13.4739 289.638 13.3853 290.077 13.2079C290.516 13.0259 290.889 12.7669 291.197 12.4309C291.505 12.0903 291.743 11.6773 291.911 11.1919C292.079 10.7019 292.163 10.1489 292.163 9.53292C292.163 8.91692 292.079 8.36392 291.911 7.87392C291.743 7.38392 291.505 6.97092 291.197 6.63492C290.889 6.29425 290.516 6.03292 290.077 5.85092C289.638 5.66892 289.148 5.57792 288.607 5.57792C288.07 5.57792 287.583 5.66892 287.144 5.85092C286.705 6.03292 286.33 6.29425 286.017 6.63492C285.709 6.97092 285.471 7.38392 285.303 7.87392C285.135 8.36392 285.051 8.91692 285.051 9.53292ZM294.018 16.6169H292.898C292.73 16.6169 292.581 16.5936 292.45 16.5469C292.319 16.5003 292.2 16.4186 292.093 16.3019L290.336 14.3839C289.804 14.5613 289.228 14.6499 288.607 14.6499C287.87 14.6499 287.198 14.5263 286.591 14.2789C285.984 14.0269 285.464 13.6746 285.03 13.2219C284.596 12.7693 284.26 12.2303 284.022 11.6049C283.784 10.9749 283.665 10.2843 283.665 9.53292C283.665 8.78159 283.784 8.09325 284.022 7.46792C284.26 6.83792 284.596 6.29659 285.03 5.84392C285.464 5.38659 285.984 5.03192 286.591 4.77992C287.198 4.52792 287.87 4.40192 288.607 4.40192C289.344 4.40192 290.016 4.52792 290.623 4.77992C291.234 5.03192 291.757 5.38659 292.191 5.84392C292.625 6.29659 292.961 6.83792 293.199 7.46792C293.437 8.09325 293.556 8.78159 293.556 9.53292C293.556 10.0043 293.507 10.4523 293.409 10.8769C293.316 11.3016 293.178 11.6983 292.996 12.0669C292.814 12.4309 292.592 12.7623 292.331 13.0609C292.07 13.3596 291.776 13.6186 291.449 13.8379L294.018 16.6169ZM299.363 13.4669C299.778 13.4669 300.149 13.3969 300.476 13.2569C300.803 13.1169 301.078 12.9209 301.302 12.6689C301.531 12.4169 301.703 12.1159 301.82 11.7659C301.941 11.4159 302.002 11.0309 302.002 10.6109V4.51392H303.353V10.6109C303.353 11.1896 303.26 11.7263 303.073 12.2209C302.891 12.7156 302.627 13.1449 302.282 13.5089C301.941 13.8683 301.524 14.1506 301.029 14.3559C300.534 14.5613 299.979 14.6639 299.363 14.6639C298.747 14.6639 298.192 14.5613 297.697 14.3559C297.202 14.1506 296.782 13.8683 296.437 13.5089C296.092 13.1449 295.826 12.7156 295.639 12.2209C295.457 11.7263 295.366 11.1896 295.366 10.6109V4.51392H296.717V10.6039C296.717 11.0239 296.775 11.4089 296.892 11.7589C297.013 12.1089 297.186 12.4099 297.41 12.6619C297.639 12.9139 297.916 13.1123 298.243 13.2569C298.574 13.3969 298.948 13.4669 299.363 13.4669ZM310.881 10.8209L309.306 6.73992C309.26 6.61859 309.211 6.47859 309.159 6.31992C309.108 6.15659 309.059 5.98392 309.012 5.80192C308.914 6.17992 308.814 6.49492 308.711 6.74692L307.136 10.8209H310.881ZM313.709 14.5449H312.659C312.538 14.5449 312.44 14.5146 312.365 14.4539C312.291 14.3933 312.235 14.3163 312.197 14.2229L311.259 11.8009H306.758L305.82 14.2229C305.792 14.3069 305.739 14.3816 305.659 14.4469C305.58 14.5123 305.482 14.5449 305.365 14.5449H304.315L308.326 4.51392H309.698L313.709 14.5449ZM323.156 4.51392V14.5449H322.477C322.37 14.5449 322.279 14.5263 322.204 14.4889C322.134 14.4516 322.064 14.3886 321.994 14.2999L316.191 6.73992C316.2 6.85659 316.207 6.97092 316.212 7.08292C316.217 7.19492 316.219 7.29992 316.219 7.39792V14.5449H315.029V4.51392H315.729C315.79 4.51392 315.841 4.51859 315.883 4.52792C315.925 4.53259 315.962 4.54425 315.995 4.56292C316.028 4.57692 316.06 4.60025 316.093 4.63292C316.126 4.66092 316.161 4.69825 316.198 4.74492L322.001 12.2979C321.992 12.1766 321.982 12.0599 321.973 11.9479C321.968 11.8313 321.966 11.7216 321.966 11.6189V4.51392H323.156ZM332.503 5.65492H329.255V14.5449H327.904V5.65492H324.649V4.51392H332.503V5.65492ZM335.35 14.5449H333.992V4.51392H335.35V14.5449ZM344.699 5.65492H341.451V14.5449H340.1V5.65492H336.845V4.51392H344.699V5.65492ZM349.953 10.5479V14.5449H348.595V10.5479L344.92 4.51392H346.11C346.232 4.51392 346.327 4.54425 346.397 4.60492C346.467 4.66092 346.528 4.73559 346.579 4.82892L348.875 8.72792C348.959 8.89125 349.036 9.04525 349.106 9.18992C349.176 9.32992 349.237 9.47226 349.288 9.61692C349.34 9.47226 349.398 9.32992 349.463 9.18992C349.529 9.04525 349.601 8.89125 349.68 8.72792L351.969 4.82892C352.011 4.74959 352.07 4.67725 352.144 4.61192C352.219 4.54659 352.315 4.51392 352.431 4.51392H353.628L349.953 10.5479Z" fill="#6F6E6E"/>
<path d="M368.002 12.6485C367.835 12.6488 367.673 12.5902 367.545 12.4827L363.258 8.88021C363.112 8.75791 363.02 8.58217 363.003 8.39165C362.986 8.20112 363.044 8.01143 363.165 7.86429C363.286 7.71715 363.461 7.62462 363.65 7.60705C363.839 7.58949 364.027 7.64832 364.173 7.77062L368.002 10.9985L371.832 7.8859C371.905 7.82605 371.989 7.78136 372.079 7.75439C372.169 7.72742 372.264 7.71871 372.358 7.72875C372.451 7.73879 372.542 7.7674 372.625 7.81291C372.707 7.85843 372.78 7.91997 372.839 7.99398C372.904 8.06806 372.954 8.15498 372.985 8.24927C373.015 8.34357 373.026 8.44321 373.017 8.54197C373.007 8.64073 372.978 8.73646 372.93 8.82318C372.882 8.9099 372.817 8.98573 372.739 9.04592L368.452 12.526C368.32 12.6164 368.162 12.6595 368.002 12.6485Z" fill="#6F6E6E"/>
</svg>
