<svg width="133" height="17" viewBox="0 0 133 17" fill="none" xmlns="http://www.w3.org/2000/svg">
<path d="M8.064 5.11H4.816V14H3.465V5.11H0.21V3.969H8.064V5.11ZM12.3315 8.827C12.7235 8.827 13.0688 8.78033 13.3675 8.687C13.6708 8.589 13.9228 8.45367 14.1235 8.281C14.3288 8.10367 14.4828 7.89367 14.5855 7.651C14.6882 7.40833 14.7395 7.14 14.7395 6.846C14.7395 6.24867 14.5435 5.79833 14.1515 5.495C13.7595 5.19167 13.1715 5.04 12.3875 5.04H10.9035V8.827H12.3315ZM16.9655 14H15.7615C15.5142 14 15.3322 13.9043 15.2155 13.713L12.6115 10.129C12.5322 10.017 12.4458 9.93767 12.3525 9.891C12.2638 9.83967 12.1238 9.814 11.9325 9.814H10.9035V14H9.55248V3.969H12.3875C13.0222 3.969 13.5705 4.03433 14.0325 4.165C14.4945 4.291 14.8748 4.47533 15.1735 4.718C15.4768 4.96067 15.7008 5.25467 15.8455 5.6C15.9902 5.94067 16.0625 6.32333 16.0625 6.748C16.0625 7.10267 16.0065 7.434 15.8945 7.742C15.7825 8.05 15.6192 8.32767 15.4045 8.575C15.1945 8.81767 14.9355 9.02533 14.6275 9.198C14.3242 9.37067 13.9788 9.50133 13.5915 9.59C13.7642 9.688 13.9135 9.83033 14.0395 10.017L16.9655 14ZM24.5178 12.894L24.5108 14H18.3298V3.969H24.5108V5.075H19.6878V8.407H23.5938V9.471H19.6878V12.894H24.5178ZM34.5369 3.969V14H33.8579C33.7506 14 33.6596 13.9813 33.5849 13.944C33.5149 13.9067 33.4449 13.8437 33.3749 13.755L27.5719 6.195C27.5812 6.31167 27.5882 6.426 27.5929 6.538C27.5976 6.65 27.5999 6.755 27.5999 6.853V14H26.4099V3.969H27.1099C27.1706 3.969 27.2219 3.97367 27.2639 3.983C27.3059 3.98767 27.3432 3.99933 27.3759 4.018C27.4086 4.032 27.4412 4.05533 27.4739 4.088C27.5066 4.116 27.5416 4.15333 27.5789 4.2L33.3819 11.753C33.3726 11.6317 33.3632 11.515 33.3539 11.403C33.3492 11.2863 33.3469 11.1767 33.3469 11.074V3.969H34.5369ZM45.7953 8.988C45.7953 9.73933 45.6763 10.423 45.4383 11.039C45.2003 11.655 44.8643 12.1823 44.4303 12.621C43.9963 13.0597 43.4736 13.4003 42.8623 13.643C42.2556 13.881 41.5836 14 40.8463 14H37.1013V3.969H40.8463C41.5836 3.969 42.2556 4.09033 42.8623 4.333C43.4736 4.571 43.9963 4.91167 44.4303 5.355C44.8643 5.79367 45.2003 6.321 45.4383 6.937C45.6763 7.553 45.7953 8.23667 45.7953 8.988ZM44.4023 8.988C44.4023 8.372 44.3183 7.82133 44.1503 7.336C43.9823 6.85067 43.7443 6.44 43.4363 6.104C43.1283 5.768 42.755 5.51133 42.3163 5.334C41.8776 5.15667 41.3876 5.068 40.8463 5.068H38.4593V12.901H40.8463C41.3876 12.901 41.8776 12.8123 42.3163 12.635C42.755 12.4577 43.1283 12.2033 43.4363 11.872C43.7443 11.536 43.9823 11.1253 44.1503 10.64C44.3183 10.1547 44.4023 9.604 44.4023 8.988ZM49.1097 14H47.7517V3.969H49.1097V14ZM59.8025 3.969V14H59.1235C59.0162 14 58.9252 13.9813 58.8505 13.944C58.7805 13.9067 58.7105 13.8437 58.6405 13.755L52.8375 6.195C52.8469 6.31167 52.8539 6.426 52.8585 6.538C52.8632 6.65 52.8655 6.755 52.8655 6.853V14H51.6755V3.969H52.3755C52.4362 3.969 52.4875 3.97367 52.5295 3.983C52.5715 3.98767 52.6089 3.99933 52.6415 4.018C52.6742 4.032 52.7069 4.05533 52.7395 4.088C52.7722 4.116 52.8072 4.15333 52.8445 4.2L58.6475 11.753C58.6382 11.6317 58.6289 11.515 58.6195 11.403C58.6149 11.2863 58.6125 11.1767 58.6125 11.074V3.969H59.8025ZM70.5149 9.177V13.027C70.0109 13.391 69.4719 13.664 68.8979 13.846C68.3286 14.0233 67.7033 14.112 67.0219 14.112C66.2146 14.112 65.4866 13.9883 64.8379 13.741C64.1893 13.489 63.6339 13.139 63.1719 12.691C62.7146 12.2383 62.3623 11.697 62.1149 11.067C61.8676 10.437 61.7439 9.744 61.7439 8.988C61.7439 8.22267 61.8629 7.525 62.1009 6.895C62.3436 6.265 62.6866 5.726 63.1299 5.278C63.5733 4.82533 64.1123 4.47533 64.7469 4.228C65.3816 3.98067 66.0909 3.857 66.8749 3.857C67.2716 3.857 67.6403 3.88733 67.9809 3.948C68.3216 4.004 68.6366 4.088 68.9259 4.2C69.2153 4.30733 69.4836 4.44033 69.7309 4.599C69.9783 4.753 70.2093 4.928 70.4239 5.124L70.0389 5.74C69.9783 5.83333 69.8989 5.894 69.8009 5.922C69.7076 5.94533 69.6026 5.922 69.4859 5.852C69.3739 5.78667 69.2456 5.70733 69.1009 5.614C68.9563 5.52067 68.7789 5.432 68.5689 5.348C68.3636 5.25933 68.1186 5.18467 67.8339 5.124C67.5539 5.06333 67.2203 5.033 66.8329 5.033C66.2683 5.033 65.7573 5.12633 65.2999 5.313C64.8426 5.495 64.4529 5.75867 64.1309 6.104C63.8089 6.44467 63.5616 6.86 63.3889 7.35C63.2163 7.83533 63.1299 8.38133 63.1299 8.988C63.1299 9.618 63.2186 10.1827 63.3959 10.682C63.5779 11.1767 63.8346 11.599 64.1659 11.949C64.5019 12.2943 64.9079 12.558 65.3839 12.74C65.8599 12.922 66.3943 13.013 66.9869 13.013C67.4536 13.013 67.8666 12.9617 68.2259 12.859C68.5899 12.7517 68.9446 12.6047 69.2899 12.418V10.213H67.7289C67.6403 10.213 67.5679 10.1873 67.5119 10.136C67.4606 10.0847 67.4349 10.0217 67.4349 9.947V9.177H70.5149ZM84.3025 3.969V14H83.6235C83.5162 14 83.4252 13.9813 83.3505 13.944C83.2805 13.9067 83.2105 13.8437 83.1405 13.755L77.3375 6.195C77.3469 6.31167 77.3539 6.426 77.3585 6.538C77.3632 6.65 77.3655 6.755 77.3655 6.853V14H76.1755V3.969H76.8755C76.9362 3.969 76.9875 3.97367 77.0295 3.983C77.0715 3.98767 77.1089 3.99933 77.1415 4.018C77.1742 4.032 77.2069 4.05533 77.2395 4.088C77.2722 4.116 77.3072 4.15333 77.3445 4.2L83.1475 11.753C83.1382 11.6317 83.1289 11.515 83.1195 11.403C83.1149 11.2863 83.1125 11.1767 83.1125 11.074V3.969H84.3025ZM96.1349 8.988C96.1349 9.73933 96.0159 10.43 95.7779 11.06C95.5399 11.6853 95.2039 12.2243 94.7699 12.677C94.3359 13.1297 93.8133 13.482 93.2019 13.734C92.5953 13.9813 91.9233 14.105 91.1859 14.105C90.4486 14.105 89.7766 13.9813 89.1699 13.734C88.5633 13.482 88.0429 13.1297 87.6089 12.677C87.1749 12.2243 86.8389 11.6853 86.6009 11.06C86.3629 10.43 86.2439 9.73933 86.2439 8.988C86.2439 8.23667 86.3629 7.54833 86.6009 6.923C86.8389 6.293 87.1749 5.75167 87.6089 5.299C88.0429 4.84167 88.5633 4.487 89.1699 4.235C89.7766 3.983 90.4486 3.857 91.1859 3.857C91.9233 3.857 92.5953 3.983 93.2019 4.235C93.8133 4.487 94.3359 4.84167 94.7699 5.299C95.2039 5.75167 95.5399 6.293 95.7779 6.923C96.0159 7.54833 96.1349 8.23667 96.1349 8.988ZM94.7419 8.988C94.7419 8.372 94.6579 7.819 94.4899 7.329C94.3219 6.839 94.0839 6.426 93.7759 6.09C93.4679 5.74933 93.0946 5.488 92.6559 5.306C92.2173 5.124 91.7273 5.033 91.1859 5.033C90.6493 5.033 90.1616 5.124 89.7229 5.306C89.2843 5.488 88.9086 5.74933 88.5959 6.09C88.2879 6.426 88.0499 6.839 87.8819 7.329C87.7139 7.819 87.6299 8.372 87.6299 8.988C87.6299 9.604 87.7139 10.157 87.8819 10.647C88.0499 11.1323 88.2879 11.5453 88.5959 11.886C88.9086 12.222 89.2843 12.481 89.7229 12.663C90.1616 12.8403 90.6493 12.929 91.1859 12.929C91.7273 12.929 92.2173 12.8403 92.6559 12.663C93.0946 12.481 93.4679 12.222 93.7759 11.886C94.0839 11.5453 94.3219 11.1323 94.4899 10.647C94.6579 10.157 94.7419 9.604 94.7419 8.988ZM110.926 3.969L107.797 14H106.579L104.038 6.349C104.015 6.27433 103.992 6.195 103.968 6.111C103.95 6.027 103.929 5.93833 103.905 5.845C103.882 5.93833 103.859 6.027 103.835 6.111C103.812 6.195 103.789 6.27433 103.765 6.349L101.21 14H99.9925L96.8635 3.969H97.9905C98.1118 3.969 98.2122 3.99933 98.2915 4.06C98.3755 4.12067 98.4292 4.19767 98.4525 4.291L100.524 11.263C100.557 11.389 100.587 11.5243 100.615 11.669C100.648 11.8137 100.678 11.9677 100.706 12.131C100.739 11.9677 100.772 11.8137 100.804 11.669C100.842 11.5197 100.881 11.3843 100.923 11.263L103.282 4.291C103.31 4.21167 103.364 4.13933 103.443 4.074C103.527 4.004 103.628 3.969 103.744 3.969H104.136C104.258 3.969 104.356 3.99933 104.43 4.06C104.505 4.12067 104.561 4.19767 104.598 4.291L106.95 11.263C106.992 11.3843 107.03 11.515 107.062 11.655C107.1 11.795 107.135 11.942 107.167 12.096C107.191 11.942 107.216 11.795 107.244 11.655C107.272 11.515 107.303 11.3843 107.335 11.263L109.414 4.291C109.438 4.207 109.489 4.13233 109.568 4.067C109.652 4.00167 109.753 3.969 109.869 3.969H110.926Z" fill="#6F6E6E"/>
<path d="M127.002 12.0021C126.835 12.0025 126.673 11.9443 126.545 11.8378L122.258 8.2655C122.112 8.14422 122.02 7.96996 122.003 7.78103C121.986 7.59211 122.044 7.40401 122.165 7.2581C122.286 7.1122 122.461 7.02044 122.65 7.00302C122.839 6.9856 123.027 7.04395 123.173 7.16522L127.002 10.366L130.832 7.27954C130.905 7.22019 130.989 7.17587 131.079 7.14913C131.169 7.12238 131.264 7.11374 131.358 7.1237C131.451 7.13366 131.542 7.16202 131.625 7.20716C131.707 7.25229 131.78 7.31331 131.839 7.38671C131.904 7.46017 131.954 7.54635 131.985 7.63986C132.015 7.73336 132.026 7.83217 132.017 7.9301C132.007 8.02802 131.978 8.12296 131.93 8.20895C131.882 8.29494 131.817 8.37013 131.739 8.42982L127.452 11.8807C127.32 11.9704 127.162 12.0131 127.002 12.0021Z" fill="#6F6E6E"/>
</svg>
